<svg width="142" height="187" viewBox="0 0 142 187" fill="none" xmlns="http://www.w3.org/2000/svg">
<path d="M122.37 115.48C131.677 105.636 137.844 93.2437 140.084 79.8826C142.325 66.5215 140.537 52.7959 134.95 40.4541C129.362 28.1124 120.228 17.713 108.71 10.5807C97.1915 3.44831 83.811 -0.0942116 70.2726 0.404328C56.7341 0.902867 43.6504 5.41993 32.688 13.3801C21.7257 21.3403 13.3807 32.3833 8.71615 45.1026C4.0516 57.8219 3.27856 71.6417 6.49548 84.8019C9.7124 97.9621 16.7737 109.867 26.78 119C23.13 131.12 15.1 143.92 5.13995 156.2C-7.78005 172.13 10.6299 194.2 28.6199 184.35C80.2699 156.01 113.2 124.7 120.77 117.17C120.93 117 122.37 115.48 122.37 115.48Z" fill="#374151"/>
</svg>
